<svg width="14" height="14" viewBox="0 0 14 14" fill="none" xmlns="http://www.w3.org/2000/svg">
<path d="M10.5 10.5C10.7917 10.5 11.0396 10.3979 11.2437 10.1938C11.4479 9.98958 11.55 9.74167 11.55 9.45C11.55 9.15833 11.4479 8.91042 11.2437 8.70625C11.0396 8.50208 10.7917 8.4 10.5 8.4C10.2083 8.4 9.96042 8.50208 9.75625 8.70625C9.55208 8.91042 9.45 9.15833 9.45 9.45C9.45 9.74167 9.55208 9.98958 9.75625 10.1938C9.96042 10.3979 10.2083 10.5 10.5 10.5ZM10.5 12.6C10.8733 12.6 11.2058 12.5183 11.4975 12.355C11.7892 12.1917 12.0342 11.9642 12.2325 11.6725C11.9992 11.4858 11.7338 11.3488 11.4362 11.2613C11.1388 11.1737 10.8267 11.13 10.5 11.13C10.1733 11.13 9.86125 11.1737 9.56375 11.2613C9.26625 11.3488 9.00083 11.4858 8.7675 11.6725C8.96583 11.9642 9.21083 12.1917 9.5025 12.355C9.79417 12.5183 10.1267 12.6 10.5 12.6ZM1.4 12.6C1.015 12.6 0.685417 12.4629 0.41125 12.1888C0.137083 11.9146 0 11.585 0 11.2V1.4C0 1.015 0.137083 0.685417 0.41125 0.41125C0.685417 0.137083 1.015 0 1.4 0H11.2C11.585 0 11.9146 0.137083 12.1888 0.41125C12.4629 0.685417 12.6 1.015 12.6 1.4V6.09C12.3783 5.985 12.1508 5.89458 11.9175 5.81875C11.6842 5.74292 11.445 5.6875 11.2 5.6525V1.4H1.4V11.2H5.635C5.67 11.4567 5.72542 11.7017 5.80125 11.935C5.87708 12.1683 5.9675 12.39 6.0725 12.6H1.4ZM1.4 10.5V11.2V1.4V5.6525V5.6V10.5ZM2.8 9.8H5.6525C5.6875 9.555 5.74292 9.31583 5.81875 9.0825C5.89458 8.84917 5.97917 8.62167 6.0725 8.4H2.8V9.8ZM2.8 7H7.07C7.44333 6.65 7.86042 6.35833 8.32125 6.125C8.78208 5.89167 9.275 5.73417 9.8 5.6525V5.6H2.8V7ZM2.8 4.2H9.8V2.8H2.8V4.2ZM10.5 14C9.53167 14 8.70625 13.6588 8.02375 12.9762C7.34125 12.2937 7 11.4683 7 10.5C7 9.53167 7.34125 8.70625 8.02375 8.02375C8.70625 7.34125 9.53167 7 10.5 7C11.4683 7 12.2937 7.34125 12.9762 8.02375C13.6588 8.70625 14 9.53167 14 10.5C14 11.4683 13.6588 12.2937 12.9762 12.9762C12.2937 13.6588 11.4683 14 10.5 14Z" fill="white"/>
</svg>
