<svg width="14" height="19" viewBox="0 0 14 19" fill="none" xmlns="http://www.w3.org/2000/svg">
<path d="M0 15.8V14H1.75V7.7C1.75 6.455 2.11458 5.34875 2.84375 4.38125C3.57292 3.41375 4.52083 2.78 5.6875 2.48V1.85C5.6875 1.475 5.8151 1.15625 6.07031 0.89375C6.32552 0.63125 6.63542 0.5 7 0.5C7.36458 0.5 7.67448 0.63125 7.92969 0.89375C8.1849 1.15625 8.3125 1.475 8.3125 1.85V2.48C9.47917 2.78 10.4271 3.41375 11.1562 4.38125C11.8854 5.34875 12.25 6.455 12.25 7.7V14H14V15.8H0ZM7 18.5C6.51875 18.5 6.10677 18.3238 5.76406 17.9713C5.42135 17.6188 5.25 17.195 5.25 16.7H8.75C8.75 17.195 8.57865 17.6188 8.23594 17.9713C7.89323 18.3238 7.48125 18.5 7 18.5ZM3.5 14H10.5V7.7C10.5 6.71 10.1573 5.8625 9.47188 5.1575C8.78646 4.4525 7.9625 4.1 7 4.1C6.0375 4.1 5.21354 4.4525 4.52812 5.1575C3.84271 5.8625 3.5 6.71 3.5 7.7V14Z" fill="#616161"/>
</svg>
