<svg width="14" height="13" viewBox="0 0 14 13" fill="none" xmlns="http://www.w3.org/2000/svg">
<path d="M1.27273 13C0.922727 13 0.623106 12.8788 0.373864 12.6363C0.124621 12.3938 0 12.1024 0 11.7619V4.95238H1.27273V11.7619H12.0909V13H1.27273ZM3.81818 10.5238C3.46818 10.5238 3.16856 10.4026 2.91932 10.1601C2.67008 9.91766 2.54545 9.62619 2.54545 9.28571V2.47619H5.72727V1.2381C5.72727 0.897619 5.85189 0.606151 6.10114 0.36369C6.35038 0.12123 6.65 0 7 0H9.54545C9.89545 0 10.1951 0.12123 10.4443 0.36369C10.6936 0.606151 10.8182 0.897619 10.8182 1.2381V2.47619H14V9.28571C14 9.62619 13.8754 9.91766 13.6261 10.1601C13.3769 10.4026 13.0773 10.5238 12.7273 10.5238H3.81818ZM3.81818 9.28571H12.7273V3.71429H3.81818V9.28571ZM7 2.47619H9.54545V1.2381H7V2.47619Z" fill="white"/>
</svg>
