<svg width="14" height="17" viewBox="0 0 14 17" fill="none" xmlns="http://www.w3.org/2000/svg">
<path d="M10.8889 14.6818L14 11.5909L12.9111 10.5091L11.6667 11.7455V8.51932H10.1111V11.7455L8.86667 10.5091L7.77778 11.5909L10.8889 14.6818ZM7.77778 17V15.4545H14V17H7.77778ZM1.55556 13.9091C1.12778 13.9091 0.761574 13.7578 0.456944 13.4551C0.152315 13.1525 0 12.7886 0 12.3636V1.54545C0 1.12045 0.152315 0.756629 0.456944 0.453977C0.761574 0.151326 1.12778 0 1.55556 0H7L11.6667 4.63636V6.97386H10.1111V5.40909H6.22222V1.54545H1.55556V12.3636H6.22222V13.9091H1.55556Z" fill="white"/>
</svg>
