<svg width="14" height="15" viewBox="0 0 14 15" fill="none" xmlns="http://www.w3.org/2000/svg">
<path d="M7.36842 15V12.6938L11.4395 8.56875C11.55 8.45625 11.6728 8.375 11.8079 8.325C11.943 8.275 12.0781 8.25 12.2132 8.25C12.3605 8.25 12.5018 8.27813 12.6368 8.33438C12.7719 8.39062 12.8947 8.475 13.0053 8.5875L13.6868 9.28125C13.7851 9.39375 13.8618 9.51875 13.9171 9.65625C13.9724 9.79375 14 9.93125 14 10.0688C14 10.2063 13.9754 10.3469 13.9263 10.4906C13.8772 10.6344 13.7974 10.7625 13.6868 10.875L9.63421 15H7.36842ZM8.47368 13.875H9.17368L11.4026 11.5875L11.0711 11.2313L10.7211 10.8938L8.47368 13.1625V13.875ZM1.47368 15C1.06842 15 0.721491 14.8531 0.432895 14.5594C0.144298 14.2656 0 13.9125 0 13.5V1.5C0 1.0875 0.144298 0.734375 0.432895 0.440625C0.721491 0.146875 1.06842 0 1.47368 0H7.36842L11.7895 4.5V6.75H10.3158V5.25H6.63158V1.5H1.47368V13.5H5.89474V15H1.47368ZM11.0711 11.2313L10.7211 10.8938L11.4026 11.5875L11.0711 11.2313Z" fill="white"/>
</svg>
