<svg width="14" height="15" viewBox="0 0 14 15" fill="none" xmlns="http://www.w3.org/2000/svg">
<path d="M6.965 11.7C7.21 11.7 7.41708 11.6154 7.58625 11.4462C7.75542 11.2771 7.84 11.07 7.84 10.825C7.84 10.58 7.75542 10.3729 7.58625 10.2037C7.41708 10.0346 7.21 9.95 6.965 9.95C6.72 9.95 6.51292 10.0346 6.34375 10.2037C6.17458 10.3729 6.09 10.58 6.09 10.825C6.09 11.07 6.17458 11.2771 6.34375 11.4462C6.51292 11.6154 6.72 11.7 6.965 11.7ZM6.335 9.005H7.63C7.63 8.62 7.67375 8.31667 7.76125 8.095C7.84875 7.87333 8.09667 7.57 8.505 7.185C8.80833 6.88167 9.0475 6.59292 9.2225 6.31875C9.3975 6.04458 9.485 5.715 9.485 5.33C9.485 4.67667 9.24583 4.175 8.7675 3.825C8.28917 3.475 7.72333 3.3 7.07 3.3C6.405 3.3 5.86542 3.475 5.45125 3.825C5.03708 4.175 4.74833 4.595 4.585 5.085L5.74 5.54C5.79833 5.33 5.92958 5.1025 6.13375 4.8575C6.33792 4.6125 6.65 4.49 7.07 4.49C7.44333 4.49 7.72333 4.59208 7.91 4.79625C8.09667 5.00042 8.19 5.225 8.19 5.47C8.19 5.70333 8.12 5.92208 7.98 6.12625C7.84 6.33042 7.665 6.52 7.455 6.695C6.94167 7.15 6.62667 7.49417 6.51 7.7275C6.39333 7.96083 6.335 8.38667 6.335 9.005ZM7 14.5C6.03167 14.5 5.12167 14.3162 4.27 13.9488C3.41833 13.5813 2.6775 13.0825 2.0475 12.4525C1.4175 11.8225 0.91875 11.0817 0.55125 10.23C0.18375 9.37833 0 8.46833 0 7.5C0 6.53167 0.18375 5.62167 0.55125 4.77C0.91875 3.91833 1.4175 3.1775 2.0475 2.5475C2.6775 1.9175 3.41833 1.41875 4.27 1.05125C5.12167 0.68375 6.03167 0.5 7 0.5C7.96833 0.5 8.87833 0.68375 9.73 1.05125C10.5817 1.41875 11.3225 1.9175 11.9525 2.5475C12.5825 3.1775 13.0813 3.91833 13.4488 4.77C13.8162 5.62167 14 6.53167 14 7.5C14 8.46833 13.8162 9.37833 13.4488 10.23C13.0813 11.0817 12.5825 11.8225 11.9525 12.4525C11.3225 13.0825 10.5817 13.5813 9.73 13.9488C8.87833 14.3162 7.96833 14.5 7 14.5ZM7 13.1C8.56333 13.1 9.8875 12.5575 10.9725 11.4725C12.0575 10.3875 12.6 9.06333 12.6 7.5C12.6 5.93667 12.0575 4.6125 10.9725 3.5275C9.8875 2.4425 8.56333 1.9 7 1.9C5.43667 1.9 4.1125 2.4425 3.0275 3.5275C1.9425 4.6125 1.4 5.93667 1.4 7.5C1.4 9.06333 1.9425 10.3875 3.0275 11.4725C4.1125 12.5575 5.43667 13.1 7 13.1Z" fill="#616161"/>
</svg>
