<svg width="14" height="12" viewBox="0 0 14 12" fill="none" xmlns="http://www.w3.org/2000/svg">
<path d="M5.64232 5.64706C4.8665 5.64706 4.20235 5.37059 3.64987 4.81765C3.0974 4.26471 2.82116 3.6 2.82116 2.82353C2.82116 2.04706 3.0974 1.38235 3.64987 0.829412C4.20235 0.276471 4.8665 0 5.64232 0C6.41814 0 7.08228 0.276471 7.63476 0.829412C8.18724 1.38235 8.46348 2.04706 8.46348 2.82353C8.46348 3.6 8.18724 4.26471 7.63476 4.81765C7.08228 5.37059 6.41814 5.64706 5.64232 5.64706ZM0 11.2941V9.31765C0 8.92941 0.099916 8.56471 0.299748 8.22353C0.49958 7.88235 0.775819 7.62353 1.12846 7.44706C1.72796 7.14118 2.40386 6.88235 3.15617 6.67059C3.90848 6.45882 4.7372 6.35294 5.64232 6.35294H5.88917C5.9597 6.35294 6.03023 6.36471 6.10076 6.38824C6.00672 6.6 5.92737 6.82059 5.86272 7.05C5.79807 7.27941 5.74811 7.51765 5.71285 7.76471H5.64232C4.80772 7.76471 4.05835 7.87059 3.39421 8.08235C2.73006 8.29412 2.1864 8.50588 1.76322 8.71765C1.65743 8.77647 1.57221 8.85882 1.50756 8.96471C1.44291 9.07059 1.41058 9.18824 1.41058 9.31765V9.88235H5.8539C5.92443 10.1294 6.01847 10.3735 6.13602 10.6147C6.25357 10.8559 6.38287 11.0824 6.52393 11.2941H0ZM9.87406 12L9.66247 10.9412C9.52141 10.8824 9.38917 10.8206 9.26574 10.7559C9.14232 10.6912 9.01595 10.6118 8.88665 10.5176L7.86398 10.8353L7.15869 9.63529L7.96977 8.92941C7.94626 8.76471 7.93451 8.61176 7.93451 8.47059C7.93451 8.32941 7.94626 8.17647 7.96977 8.01177L7.15869 7.30588L7.86398 6.10588L8.88665 6.42353C9.01595 6.32941 9.14232 6.25 9.26574 6.18529C9.38917 6.12059 9.52141 6.05882 9.66247 6L9.87406 4.94118H11.2846L11.4962 6C11.6373 6.05882 11.7695 6.12353 11.8929 6.19412C12.0164 6.26471 12.1427 6.35294 12.272 6.45882L13.2947 6.10588L14 7.34118L13.1889 8.04706C13.2124 8.18824 13.2242 8.33529 13.2242 8.48824C13.2242 8.64118 13.2124 8.78824 13.1889 8.92941L14 9.63529L13.2947 10.8353L12.272 10.5176C12.1427 10.6118 12.0164 10.6912 11.8929 10.7559C11.7695 10.8206 11.6373 10.8824 11.4962 10.9412L11.2846 12H9.87406ZM10.5793 9.88235C10.9673 9.88235 11.2993 9.74412 11.5756 9.46765C11.8518 9.19118 11.9899 8.85882 11.9899 8.47059C11.9899 8.08235 11.8518 7.75 11.5756 7.47353C11.2993 7.19706 10.9673 7.05882 10.5793 7.05882C10.1914 7.05882 9.85936 7.19706 9.58312 7.47353C9.30688 7.75 9.16877 8.08235 9.16877 8.47059C9.16877 8.85882 9.30688 9.19118 9.58312 9.46765C9.85936 9.74412 10.1914 9.88235 10.5793 9.88235ZM5.64232 4.23529C6.03023 4.23529 6.3623 4.09706 6.63854 3.82059C6.91478 3.54412 7.0529 3.21176 7.0529 2.82353C7.0529 2.43529 6.91478 2.10294 6.63854 1.82647C6.3623 1.55 6.03023 1.41176 5.64232 1.41176C5.25441 1.41176 4.92233 1.55 4.6461 1.82647C4.36986 2.10294 4.23174 2.43529 4.23174 2.82353C4.23174 3.21176 4.36986 3.54412 4.6461 3.82059C4.92233 4.09706 5.25441 4.23529 5.64232 4.23529Z" fill="white"/>
</svg>
