<svg width="14" height="13" viewBox="0 0 14 13" fill="none" xmlns="http://www.w3.org/2000/svg">
<path d="M1.4 10.1111V1.44444V4.83889V4.33333V10.1111ZM6.09 11.5556H1.4C1.015 11.5556 0.685417 11.4141 0.41125 11.1313C0.137083 10.8484 0 10.5083 0 10.1111V1.44444C0 1.04722 0.137083 0.707176 0.41125 0.424306C0.685417 0.141435 1.015 0 1.4 0H5.6L7 1.44444H12.6C12.985 1.44444 13.3146 1.58588 13.5887 1.86875C13.8629 2.15162 14 2.49167 14 2.88889V5.86806C13.8017 5.65139 13.5858 5.4588 13.3525 5.29028C13.1192 5.12176 12.8683 4.9713 12.6 4.83889V2.88889H6.4225L5.0225 1.44444H1.4V10.1111H5.6525C5.6875 10.3639 5.74292 10.6106 5.81875 10.8514C5.89458 11.0921 5.985 11.3269 6.09 11.5556ZM10.5 5.77778C11.4683 5.77778 12.2937 6.12986 12.9762 6.83403C13.6588 7.53819 14 8.38982 14 9.38889C14 10.388 13.6588 11.2396 12.9762 11.9438C12.2937 12.6479 11.4683 13 10.5 13C9.53167 13 8.70625 12.6479 8.02375 11.9438C7.34125 11.2396 7 10.388 7 9.38889C7 8.38982 7.34125 7.53819 8.02375 6.83403C8.70625 6.12986 9.53167 5.77778 10.5 5.77778ZM10.15 11.5556H10.85V8.66667H10.15V11.5556ZM10.5 7.94444C10.5933 7.94444 10.675 7.90833 10.745 7.83611C10.815 7.76389 10.85 7.67963 10.85 7.58333C10.85 7.48704 10.815 7.40278 10.745 7.33056C10.675 7.25833 10.5933 7.22222 10.5 7.22222C10.4067 7.22222 10.325 7.25833 10.255 7.33056C10.185 7.40278 10.15 7.48704 10.15 7.58333C10.15 7.67963 10.185 7.76389 10.255 7.83611C10.325 7.90833 10.4067 7.94444 10.5 7.94444Z" fill="white"/>
</svg>
