<svg width="14" height="14" viewBox="0 0 14 14" fill="none" xmlns="http://www.w3.org/2000/svg">
<path d="M3.50577 12.6008V4.88751C3.50577 4.50272 3.64569 4.17624 3.92554 3.90805C4.20539 3.63986 4.5377 3.50577 4.92249 3.50577H12.6008C12.9856 3.50577 13.315 3.64278 13.589 3.9168C13.863 4.19081 14 4.52021 14 4.905V10.5019L10.5019 14H4.905C4.52021 14 4.19081 13.863 3.9168 13.589C3.64278 13.315 3.50577 12.9856 3.50577 12.6008ZM0.0251861 2.98106C-0.0447754 2.59627 0.0310163 2.24938 0.252561 1.94038C0.474106 1.63139 0.777273 1.44191 1.16206 1.37195L8.75289 0.0251861C9.13767 -0.0447754 9.48457 0.0310163 9.79356 0.252561C10.1026 0.474106 10.292 0.777273 10.362 1.16206L10.5369 2.10654H9.10269L8.98026 1.40693L1.40693 2.75369L2.10654 6.70651V11.5863C1.91998 11.4814 1.75965 11.3415 1.62556 11.1666C1.49146 10.9917 1.40693 10.7934 1.37195 10.5719L0.0251861 2.98106ZM4.905 4.905V12.6008H9.80231V9.80231H12.6008V4.905H4.905Z" fill="white"/>
</svg>
