<svg width="14" height="15" viewBox="0 0 14 15" fill="none" xmlns="http://www.w3.org/2000/svg">
<path d="M3.5 8.25H10.5V6.75H3.5V8.25ZM3.5 10.5H10.5V9H3.5V10.5ZM3.5 12.75H7.875V11.25H3.5V12.75ZM1.75 15C1.26875 15 0.856771 14.8531 0.514062 14.5594C0.171354 14.2656 0 13.9125 0 13.5V1.5C0 1.0875 0.171354 0.734375 0.514062 0.440625C0.856771 0.146875 1.26875 0 1.75 0H8.75L14 4.5V13.5C14 13.9125 13.8286 14.2656 13.4859 14.5594C13.1432 14.8531 12.7312 15 12.25 15H1.75ZM7.875 5.25V1.5H1.75V13.5H12.25V5.25H7.875Z" fill="white"/>
</svg>
