<svg width="14" height="15" viewBox="0 0 14 15" fill="none" xmlns="http://www.w3.org/2000/svg">
<path d="M0 3.40909V0H3.5V1.36364H1.4V3.40909H0ZM12.6 3.40909V1.36364H10.5V0H14V3.40909H12.6ZM0 15V11.5909H1.4V13.6364H3.5V15H0ZM10.5 15V13.6364H12.6V11.5909H14V15H10.5ZM3.5 11.5909H10.5V3.40909H3.5V11.5909ZM3.5 12.9545C3.115 12.9545 2.78542 12.821 2.51125 12.554C2.23708 12.2869 2.1 11.9659 2.1 11.5909V3.40909C2.1 3.03409 2.23708 2.71307 2.51125 2.44602C2.78542 2.17898 3.115 2.04545 3.5 2.04545H10.5C10.885 2.04545 11.2146 2.17898 11.4888 2.44602C11.7629 2.71307 11.9 3.03409 11.9 3.40909V11.5909C11.9 11.9659 11.7629 12.2869 11.4888 12.554C11.2146 12.821 10.885 12.9545 10.5 12.9545H3.5ZM4.9 6.13636H9.1V4.77273H4.9V6.13636ZM4.9 8.18182H9.1V6.81818H4.9V8.18182ZM4.9 10.2273H9.1V8.86364H4.9V10.2273Z" fill="white"/>
</svg>
