 <svg class="w-60 h-9 text-gray-800" viewBox="0 0 236 35" fill="none" xmlns="http://www.w3.org/2000/svg">
                   <path d="M8.16406 34C7.89844 34 7.69531 33.8438 7.55469 33.5312C7.42969 33.2188 7.36719 32.9766 7.36719 32.8047C7.36719 32.2891 7.625 32 8.14062 31.9375C8.875 31.8906 9.60938 31.8125 10.3438 31.7031C11.0938 31.5781 11.7188 31.3672 12.2188 31.0703C12.7188 30.7578 12.9688 30.3125 12.9688 29.7344V3.0625H7.10938C6.4375 3.0625 5.875 3.375 5.42188 4C4.98438 4.625 4.625 5.38281 4.34375 6.27344C4.07812 7.14844 3.875 7.99219 3.73438 8.80469C3.60938 9.61719 3.53125 10.2109 3.5 10.5859C3.46875 10.8828 3.29688 11.0859 2.98438 11.1953C2.6875 11.3047 2.41406 11.3594 2.16406 11.3594C1.99219 11.3594 1.75 11.2969 1.4375 11.1719C1.125 11.0312 0.96875 10.8281 0.96875 10.5625C1 9.79688 1.03125 8.86719 1.0625 7.77344C1.10938 6.66406 1.16406 5.57812 1.22656 4.51562C1.28906 3.4375 1.35156 2.53906 1.41406 1.82031C1.49219 1.10156 1.57812 0.742188 1.67188 0.742188H31.8359C31.9297 0.742188 32.0078 1.10156 32.0703 1.82031C32.1484 2.53906 32.2188 3.4375 32.2812 4.51562C32.3438 5.57812 32.3984 6.66406 32.4453 7.77344C32.4922 8.86719 32.5234 9.79688 32.5391 10.5625C32.5391 10.8281 32.3828 11.0312 32.0703 11.1719C31.7578 11.2969 31.5156 11.3594 31.3438 11.3594C31.0938 11.3594 30.8125 11.3047 30.5 11.1953C30.2031 11.0859 30.0391 10.8828 30.0078 10.5859C29.9609 10.2109 29.875 9.61719 29.75 8.80469C29.625 7.99219 29.4219 7.14844 29.1406 6.27344C28.875 5.38281 28.5156 4.625 28.0625 4C27.625 3.375 27.0703 3.0625 26.3984 3.0625H20.8438V29.6641C20.8438 30.3359 21.1016 30.8281 21.6172 31.1406C22.1484 31.4375 22.7812 31.6328 23.5156 31.7266C24.2656 31.8203 24.9531 31.8906 25.5781 31.9375C25.9062 31.9688 26.125 32.0312 26.2344 32.125C26.3594 32.2188 26.4219 32.4453 26.4219 32.8047C26.4219 32.9766 26.3516 33.2188 26.2109 33.5312C26.0859 33.8438 25.8906 34 25.625 34H8.16406ZM35.7734 32.8047C35.7734 32.2891 36.0312 32 36.5469 31.9375C37.2969 31.875 38.0547 31.7422 38.8203 31.5391C39.5859 31.3203 39.9688 30.9531 39.9688 30.4375V5.07812C39.9688 4.40625 39.7656 3.92188 39.3594 3.625C38.9688 3.32812 38.5 3.13281 37.9531 3.03906C37.4062 2.92969 36.8906 2.85156 36.4062 2.80469C36.0781 2.77344 35.8516 2.71094 35.7266 2.61719C35.6172 2.50781 35.5625 2.28125 35.5625 1.9375C35.5625 1.76563 35.625 1.52344 35.75 1.21094C35.8906 0.898438 36.0938 0.742188 36.3594 0.742188H63.5234L64.3438 8.35938C64.375 8.625 64.2422 8.82812 63.9453 8.96875C63.6641 9.09375 63.4375 9.15625 63.2656 9.15625C63.0156 9.15625 62.7188 9.11719 62.375 9.03906C62.0312 8.94531 61.7656 8.72656 61.5781 8.38281C60.9531 7.21094 60.4531 6.23438 60.0781 5.45312C59.7188 4.65625 59.3203 4.0625 58.8828 3.67188C58.4453 3.26563 57.8047 3.0625 56.9609 3.0625H47.7969V15.7656H54.0547C54.4609 15.7031 54.8359 15.4062 55.1797 14.875C55.5234 14.3438 55.8047 13.7734 56.0234 13.1641C56.2578 12.5391 56.3906 12.0703 56.4219 11.7578C56.4531 11.4453 56.5781 11.2422 56.7969 11.1484C57.0156 11.0547 57.25 11.0078 57.5 11.0078C57.6719 11.0078 57.9297 11.0781 58.2734 11.2188C58.6172 11.3438 58.7891 11.5391 58.7891 11.8047V22.1875C58.7891 22.4531 58.6172 22.6562 58.2734 22.7969C57.9297 22.9219 57.6719 22.9844 57.5 22.9844C57.25 22.9844 57 22.9297 56.75 22.8203C56.5156 22.7109 56.3828 22.5078 56.3516 22.2109C56.3359 21.8672 56.2109 21.3672 55.9766 20.7109C55.7578 20.0391 55.4688 19.4219 55.1094 18.8594C54.75 18.2969 54.3516 18.0156 53.9141 18.0156H47.7969V29.3828C47.7969 30.2422 48.0234 30.8203 48.4766 31.1172C48.9297 31.4141 49.4141 31.5859 49.9297 31.6328H56.7031C58.1094 31.6328 59.2656 31.1562 60.1719 30.2031C61.0938 29.25 62.0938 27.6016 63.1719 25.2578C63.2969 24.9766 63.5312 24.7812 63.875 24.6719C64.2188 24.5469 64.5156 24.4844 64.7656 24.4844C65.0625 24.4844 65.3672 24.5547 65.6797 24.6953C66.0078 24.8203 66.1875 25.0156 66.2188 25.2812L65.2812 34H36.5703C36.3047 34 36.1016 33.8438 35.9609 33.5312C35.8359 33.2188 35.7734 32.9766 35.7734 32.8047ZM88.6719 34.7031C86.3281 34.7031 84.0234 34.4219 81.7578 33.8594C79.5078 33.2812 77.4688 32.3359 75.6406 31.0234C73.8125 29.7109 72.3594 27.9453 71.2812 25.7266C70.2031 23.5078 69.6641 20.75 69.6641 17.4531C69.6641 14.3594 70.2266 11.7109 71.3516 9.50781C72.4922 7.28906 73.9844 5.48438 75.8281 4.09375C77.6719 2.70313 79.6719 1.67969 81.8281 1.02344C84 0.367188 86.1172 0.0390625 88.1797 0.0390625C90.7266 0.0390625 92.7266 0.210937 94.1797 0.554688C95.6328 0.898438 96.7344 1.24219 97.4844 1.58594C98.25 1.92969 98.8438 2.10156 99.2656 2.10156L99.6641 9.60156C99.6953 9.86719 99.4922 10.0938 99.0547 10.2812C98.6328 10.4531 98.3203 10.5391 98.1172 10.5391C98.0703 10.5391 98.0234 10.5469 97.9766 10.5625C97.9297 10.5625 97.8672 10.5625 97.7891 10.5625C97.4609 10.5625 97.0859 10.5156 96.6641 10.4219C96.2578 10.3125 96.0312 10.1328 95.9844 9.88281C95.75 8.53906 95.3594 7.29688 94.8125 6.15625C94.2656 5 93.4609 4.07031 92.3984 3.36719C91.3359 2.64844 89.9141 2.28906 88.1328 2.28906C87.1797 2.28906 86.1641 2.45312 85.0859 2.78125C84.0078 3.09375 82.9844 3.75 82.0156 4.75C81.0625 5.75 80.2812 7.26562 79.6719 9.29688C79.0781 11.3125 78.7812 14.0312 78.7812 17.4531C78.7812 20.7031 79.1094 23.3203 79.7656 25.3047C80.4375 27.2891 81.2812 28.8047 82.2969 29.8516C83.3281 30.8828 84.4062 31.5781 85.5312 31.9375C86.6719 32.2969 87.7109 32.4766 88.6484 32.4766C90.2422 32.4766 91.6016 32.0938 92.7266 31.3281C93.8516 30.5625 94.7578 29.5625 95.4453 28.3281C96.1484 27.0781 96.6328 25.7422 96.8984 24.3203C96.9609 24.0078 97.1016 23.8047 97.3203 23.7109C97.5391 23.6016 97.7734 23.5469 98.0234 23.5469C98.2109 23.5469 98.5312 23.6172 98.9844 23.7578C99.4531 23.8828 99.6875 24.0781 99.6875 24.3438L99.0312 31.4688C99.0156 31.6875 98.5312 32.0625 97.5781 32.5938C96.625 33.1094 95.3672 33.5859 93.8047 34.0234C92.2422 34.4766 90.5312 34.7031 88.6719 34.7031ZM104.141 34C103.875 34 103.672 33.8438 103.531 33.5312C103.406 33.2188 103.344 32.9766 103.344 32.8047C103.344 32.2891 103.602 32 104.117 31.9375C104.617 31.8906 105.203 31.8125 105.875 31.7031C106.562 31.5938 107.164 31.4062 107.68 31.1406C108.195 30.8594 108.453 30.4688 108.453 29.9688V6.34375C108.453 5.67188 108.18 5.08594 107.633 4.58594C107.086 4.07031 106.461 3.65625 105.758 3.34375C105.055 3.03125 104.461 2.85156 103.977 2.80469C103.648 2.77344 103.422 2.71094 103.297 2.61719C103.188 2.50781 103.133 2.28125 103.133 1.9375C103.133 1.76563 103.195 1.52344 103.32 1.21094C103.461 0.898438 103.664 0.742188 103.93 0.742188H115.367L134.352 23.0547H134.633V5.07812C134.633 4.40625 134.375 3.92188 133.859 3.625C133.344 3.32812 132.75 3.13281 132.078 3.03906C131.422 2.92969 130.852 2.85156 130.367 2.80469C130.039 2.77344 129.812 2.71094 129.688 2.61719C129.578 2.50781 129.523 2.28125 129.523 1.9375C129.523 1.76563 129.586 1.52344 129.711 1.21094C129.852 0.898438 130.055 0.742188 130.32 0.742188H141.453C141.719 0.742188 141.914 0.898438 142.039 1.21094C142.18 1.52344 142.25 1.76563 142.25 1.9375C142.25 2.45312 141.992 2.74219 141.477 2.80469C141.008 2.85156 140.445 2.94531 139.789 3.08594C139.148 3.22656 138.586 3.44531 138.102 3.74219C137.617 4.02344 137.375 4.42969 137.375 4.96094V31.3516C137.375 31.6484 137.391 31.8984 137.422 32.1016C137.453 32.2891 137.484 32.6094 137.516 33.0625C137.562 33.6719 137.266 34.0938 136.625 34.3281C135.984 34.5781 135.422 34.7031 134.938 34.7031C134.375 34.7031 133.953 34.5312 133.672 34.1875L111.828 8.45312H111.43V29.6641C111.43 30.3359 111.727 30.8203 112.32 31.1172C112.914 31.4141 113.586 31.6094 114.336 31.7031C115.086 31.7969 115.695 31.875 116.164 31.9375C116.492 31.9688 116.711 32.0312 116.82 32.125C116.945 32.2188 117.008 32.4453 117.008 32.8047C117.008 32.9766 116.938 33.2188 116.797 33.5312C116.672 33.8438 116.477 34 116.211 34H104.141ZM145.883 34C145.617 34 145.414 33.8438 145.273 33.5312C145.148 33.2188 145.086 32.9766 145.086 32.8047C145.086 32.2891 145.344 32 145.859 31.9375C146.609 31.875 147.359 31.7422 148.109 31.5391C148.875 31.3203 149.258 30.9531 149.258 30.4375L149.281 5.07812C149.281 4.40625 149.078 3.92188 148.672 3.625C148.281 3.3125 147.812 3.10938 147.266 3.01562C146.719 2.90625 146.203 2.83594 145.719 2.80469C145.391 2.77344 145.164 2.71094 145.039 2.61719C144.93 2.50781 144.875 2.28125 144.875 1.9375C144.875 1.76563 144.938 1.52344 145.062 1.21094C145.203 0.898438 145.406 0.742188 145.672 0.742188H160.555C160.82 0.742188 161.016 0.898438 161.141 1.21094C161.281 1.52344 161.352 1.76563 161.352 1.9375C161.352 2.45312 161.094 2.74219 160.578 2.80469C159.781 2.86719 159.016 3.00781 158.281 3.22656C157.547 3.42969 157.18 3.78906 157.18 4.30469L157.156 29.6641C157.156 30.3359 157.352 30.8281 157.742 31.1406C158.148 31.4375 158.625 31.6328 159.172 31.7266C159.734 31.8203 160.25 31.8906 160.719 31.9375C161.047 31.9688 161.266 32.0312 161.375 32.125C161.5 32.2188 161.562 32.4453 161.562 32.8047C161.562 32.9766 161.492 33.2188 161.352 33.5312C161.227 33.8438 161.031 34 160.766 34H145.883ZM184.766 34.7031C182.422 34.7031 180.117 34.4219 177.852 33.8594C175.602 33.2812 173.562 32.3359 171.734 31.0234C169.906 29.7109 168.453 27.9453 167.375 25.7266C166.297 23.5078 165.758 20.75 165.758 17.4531C165.758 14.3594 166.32 11.7109 167.445 9.50781C168.586 7.28906 170.078 5.48438 171.922 4.09375C173.766 2.70313 175.766 1.67969 177.922 1.02344C180.094 0.367188 182.211 0.0390625 184.273 0.0390625C186.82 0.0390625 188.82 0.210937 190.273 0.554688C191.727 0.898438 192.828 1.24219 193.578 1.58594C194.344 1.92969 194.938 2.10156 195.359 2.10156L195.758 9.60156C195.789 9.86719 195.586 10.0938 195.148 10.2812C194.727 10.4531 194.414 10.5391 194.211 10.5391C194.164 10.5391 194.117 10.5469 194.07 10.5625C194.023 10.5625 193.961 10.5625 193.883 10.5625C193.555 10.5625 193.18 10.5156 192.758 10.4219C192.352 10.3125 192.125 10.1328 192.078 9.88281C191.844 8.53906 191.453 7.29688 190.906 6.15625C190.359 5 189.555 4.07031 188.492 3.36719C187.43 2.64844 186.008 2.28906 184.227 2.28906C183.273 2.28906 182.258 2.45312 181.18 2.78125C180.102 3.09375 179.078 3.75 178.109 4.75C177.156 5.75 176.375 7.26562 175.766 9.29688C175.172 11.3125 174.875 14.0312 174.875 17.4531C174.875 20.7031 175.203 23.3203 175.859 25.3047C176.531 27.2891 177.375 28.8047 178.391 29.8516C179.422 30.8828 180.5 31.5781 181.625 31.9375C182.766 32.2969 183.805 32.4766 184.742 32.4766C186.336 32.4766 187.695 32.0938 188.82 31.3281C189.945 30.5625 190.852 29.5625 191.539 28.3281C192.242 27.0781 192.727 25.7422 192.992 24.3203C193.055 24.0078 193.195 23.8047 193.414 23.7109C193.633 23.6016 193.867 23.5469 194.117 23.5469C194.305 23.5469 194.625 23.6172 195.078 23.7578C195.547 23.8828 195.781 24.0781 195.781 24.3438L195.125 31.4688C195.109 31.6875 194.625 32.0625 193.672 32.5938C192.719 33.1094 191.461 33.5859 189.898 34.0234C188.336 34.4766 186.625 34.7031 184.766 34.7031ZM217.953 34.6797C215.234 34.6797 212.797 34.2266 210.641 33.3203C208.5 32.4141 206.672 31.1641 205.156 29.5703C203.656 27.9609 202.508 26.1016 201.711 23.9922C200.914 21.8828 200.516 19.625 200.516 17.2188C200.516 14.0156 201.211 11.1172 202.602 8.52344C204.008 5.92969 206.008 3.86719 208.602 2.33594C211.211 0.804688 214.328 0.0390625 217.953 0.0390625C221.578 0.0390625 224.695 0.804688 227.305 2.33594C229.914 3.86719 231.914 5.92969 233.305 8.52344C234.711 11.1172 235.414 14.0156 235.414 17.2188C235.414 19.625 235.016 21.8828 234.219 23.9922C233.422 26.1016 232.266 27.9609 230.75 29.5703C229.234 31.1641 227.398 32.4141 225.242 33.3203C223.102 34.2266 220.672 34.6797 217.953 34.6797ZM218.047 32.4766C220.031 32.4766 221.633 31.8672 222.852 30.6484C224.086 29.4141 224.992 27.6641 225.57 25.3984C226.148 23.1172 226.438 20.4062 226.438 17.2656C226.438 14.125 226.133 11.4297 225.523 9.17969C224.93 6.92969 224.008 5.21094 222.758 4.02344C221.508 2.82031 219.891 2.21875 217.906 2.21875C215.938 2.21875 214.328 2.82031 213.078 4.02344C211.844 5.21094 210.93 6.92969 210.336 9.17969C209.758 11.4297 209.469 14.125 209.469 17.2656C209.469 20.4062 209.773 23.1172 210.383 25.3984C210.992 27.6641 211.93 29.4141 213.195 30.6484C214.461 31.8672 216.078 32.4766 218.047 32.4766Z" fill="#FFCD00"/>
</svg>
